<svg id="Layer_1" data-name="Layer 1" xmlns="http://www.w3.org/2000/svg" viewBox="0 0 512 512"><defs><style>.cls-1{fill:#fefefd;stroke:#000;}.cls-1,.cls-3{stroke-miterlimit:10;}.cls-2{fill:#333;}.cls-3{fill:none;stroke:#2f9fa7;stroke-width:0.62px;}.cls-4{fill:#2f9fa7;}</style></defs><title>icon</title><rect class="cls-1" x="0.5" y="0.5" width="512" height="512"/><path class="cls-2" d="M31.08,254.66c3.42,6.12,9.2,11.2,14.45,15.7,4.11,3.53,9.21,8.56,14.83,9.26,2,.25,3.77-1.91,3.73-3.73-.25-13.68-1.59-27.3-1.89-41l-5.62,3.22c10.83,8.31,14.06,24.23,27.17,30.09,2.4,1.07,5.77-.13,5.62-3.22-.88-17.82-5.7-35.16-6.61-52.95-.25-4.78-7.71-4.81-7.46,0,.9,17.8,5.72,35.13,6.61,52.95l5.61-3.22c-6.53-2.92-10.41-9.23-14.28-14.94-3.77-5.56-7.51-11-12.89-15.15-2.3-1.76-5.67.64-5.62,3.22.31,13.67,1.65,27.29,1.9,41l3.73-3.73c-.28,0-3-2-3.88-2.56A87.17,87.17,0,0,1,49,263.51c-4.13-3.7-8.74-7.72-11.47-12.61-2.35-4.2-8.79-.44-6.45,3.76Z"/><path class="cls-2" d="M79.19,215.78A134,134,0,0,0,99,215.07c9.5-1.08,17.5-2.92,22.14-12,4.51-8.83,5.6-28.05-7.76-30.2-14.48-2.33-14.65,23.72-14.76,32.37-.25,19.34,4.73,38.27,9.38,56.89,1,4,7.52,3.25,7.33-1a79.32,79.32,0,0,1,1.25-18.91c.63-3.18,2.65-16.3,6.58-16.49,6.14-.3,5.54,17.5,6.8,21.34,2.32,7.07,9.38,9.11,15.31,5.59,5.49-3.26,12.62-8.18,15.33-14.19,1.95-4.35-4.47-8.15-6.44-3.77-1.53,3.39-5,6-7.84,8.22-1.56,1.2-5.28,4.61-7.21,4.14-3.65-.89-3.31-11.13-3.82-13.91-.67-3.67-1.64-7.68-4-10.69a9.83,9.83,0,0,0-17,1.7c-5.36,11.22-7,24.68-6.49,37l7.33-1c-4-15.86-8.21-31.86-9-48.28a92.41,92.41,0,0,1,1.91-24.77c.76-3.39,3.39-10.43,7.15-4.07a15.07,15.07,0,0,1,1.51,10c-.74,4.47-3,10.35-7.4,12.3-3.82,1.68-8.4,2.12-12.51,2.5a139.12,139.12,0,0,1-17.68.49c-4.81-.17-4.8,7.29,0,7.46Z"/><path class="cls-2" d="M450.56,256.7c8.11,2.53,27.2,7,27.44-7,.1-6.16-4.48-9.92-10.38-10.25-6.08-.33-11.58,2.76-15.83,6.86-6.38,6.17-13.34,16.44-9,25.46,5.73,11.78,19.37,8.8,28.47,3.13,4.06-2.54.32-9-3.77-6.45-5,3.1-13.83,7.42-17.75.52-2.56-4.51.93-9.33,3.54-13a24.12,24.12,0,0,1,8.29-7.75c1.84-.93,7.32-2.71,8.8-.15,1.79,3.11-4.1,4.38-6,4.33a31.45,31.45,0,0,1-6.83-1.49c-1.69-.45-3.4-.84-5.06-1.36-4.6-1.43-6.56,5.77-2,7.2Z"/><path class="cls-2" d="M365.86,224.88c3.47-1.29,6.29-3.79,9.22-6,.71-.52,4.15-2.27,4.47-3.09.73-.34.36-.64-1.09-.9q-1.84-1.75-1.43.41a13.74,13.74,0,0,0-.42,3.44c-1,10.5-4.27,20.8-8,30.62-1.5,3.91,5.08,6.73,6.82,2.88,4.4-9.8,10.84-22.09,19.62-28.62.92-.69,2.75-1.74,3.26-1.39.82.57.47,5.32.34,6.8a74.38,74.38,0,0,1-4.42,18.41c-1.24,3.43,3.88,6.47,6.23,3.63,6.87-8.31,13-19,21.95-25.27,1.72-1.21,4.44-3,6.58-3,4.32,0,3.13,4.78,1.68,7.32-2,3.53-4.49,6.85-6.7,10.27a139,139,0,0,0-7.71,13c-1.51,3-3.46,6.65-3,10.12,1,8,11.79,3,16.07,1.31,4.92-1.94,9.75-4.09,14.59-6.22,3-1.33,6.3-3.22,9.6-3.85,4.71-.91,2.71-8.1-2-7.2-7.44,1.44-14.91,6.28-21.87,9.14-2,.84-4.09,1.66-6.17,2.39-.95.33-4.19.7-4.76,1.39-.27.33,1.09,2.55,2.05,1.41s1.58-4.07,2.38-5.59c4.29-8.22,10.26-15.42,14.67-23.55,2.8-5.18,2.4-11-2.12-15s-10.1-2.17-14.87.37c-10.95,5.83-17.95,18.42-25.64,27.72l6.23,3.63c2.52-7,11.74-38.22-5.44-34.5-6.56,1.43-11.52,8.52-15.2,13.57a112.82,112.82,0,0,0-11.8,20l6.82,2.88A159.72,159.72,0,0,0,382,231.45c1.29-5.39,3-12.18,2.47-17.74-1.38-13.59-16.21,2.34-20.6,4s-2.53,8.88,2,7.19Z"/><path class="cls-2" d="M298.73,202.62c-3.21-7.82-10.69-13.31-18.88-8.18-6.54,4.1-10,14.74-3.82,20.64,3.78,3.58,9.17,4.27,13.91,5.78,5.78,1.84,8.1,7.18,6.51,12.89-1,3.71-6,10.66-9.95,5.79-4.32-5.26,2.15-11.83,6.34-14.48,11.13-7.05,26.88-2.28,38.53.68l-1.64-6.24c-6.57,7.64-10.53,23.2.31,29a15.83,15.83,0,0,0,17.2-1.57c4.27-3.26,6.21-8.6,7.4-13.67,2.45-10.51,2.61-26.17-6.5-33.85-8.74-7.36-24.37-2.55-21.16,10.54,3.42,13.94,25.73,17.87,37.58,15.28,4.69-1,2.71-8.22-2-7.19-4.47,1-9.45.36-13.85-.66-4.81-1.12-12.81-3.4-14.42-8.86-1.79-6.08,5.48-6.27,8.89-3.5,3.21,2.59,4.58,8.09,5.18,12,1.05,6.89.19,19.26-5.68,24-3.6,2.9-10.87,2.72-11.83-2.76-.78-4.46,1.25-10.12,4.13-13.47,1.76-2.05,1.25-5.5-1.64-6.24-12-3-25.28-6.44-37.59-3-10.29,2.91-21.4,13.83-17,25.28,4.22,10.89,17.15,9,22.5.28,5.8-9.43,3.3-22.63-7.6-26.85-4.67-1.81-15.66-2.21-13-9.65,2.22-6.19,8.45-5.76,10.81,0,1.8,4.38,9,2.46,7.19-2Z"/><path class="cls-2" d="M159.85,220.28C154.59,228,151.62,239.2,156,248c3.88,7.79,13,9.41,20.2,5.09,8.46-5.09,10.29-14.85,8.48-24-1.7-8.59-5.76-20.6-13.76-25.38-6.24-3.73-16.3-2.52-19,5.09-3.11,8.73,5,16.16,13.1,17,9.22,1,19.35-3.14,27.47-7.15,8.36-4.13,16.21-9.82,21.94-17.25,5.43-7,8.74-16.05,7.45-25-1.18-8.21-8.77-16.17-17.64-13s-9.15,14.45-9.28,22.13a130.71,130.71,0,0,0,4.42,35.86c2.37,8.91,5.3,21,12.76,27.14,6.58,5.46,16.3,3.06,22.47-1.91,7.29-5.86,12.65-14.45,15.85-23.17,2.45-6.68,5.08-19.19-5.28-20.28-8.63-.91-14.44,9.38-13.79,16.88.85,9.67,8.78,18.66,18.39,20.28s16.34-3.48,21.44-11.06c3.56-5.28,8.33-11.92,8.9-18.4.42-4.79-7-4.76-7.46,0-.3,3.37-3.41,7.36-5.1,10.18a50,50,0,0,1-6,8.81c-9,9.55-27.75-3.66-21.87-15.24.55-1.08,2.23-3.54,3.67-3.75,3.43-.52,1.78,4.4,1.24,6.51a48.49,48.49,0,0,1-8.1,16.48c-3.47,4.71-7.67,9.11-13.65,10.13-7.14,1.23-9.9-6.17-12.05-11.69a123.36,123.36,0,0,1-8.35-43.16c0-4.91-1-13.07,2.37-17.13,2.64-3.2,6.68-1.51,8.53,1.64s1.59,7.92.87,11.46c-2.27,11.11-11.68,19.36-21.06,24.8-5.92,3.44-31.2,15.82-34.15,4-.91-3.66,2.54-5.21,5.7-4.62,3.65.68,5.93,4,7.56,7.1,3.52,6.57,7.16,15.91,5.3,23.38-1.3,5.2-8.76,11.8-13.77,6.65-5.56-5.72-1.1-16.91,2.56-22.27,2.72-4-3.74-7.7-6.44-3.76Z"/><line class="cls-3" x1="142.42" y1="289.4" x2="142.42" y2="289.4"/><path class="cls-4" d="M138.77,182.32c3.72,3.53,9.94,7.07,13.66,10.6"/><path class="cls-4" d="M136.57,184.52c4.26,3.91,9.41,6.69,13.66,10.6,2.94,2.7,7.35-1.68,4.4-4.4-4.26-3.91-9.41-6.69-13.66-10.6-2.95-2.7-7.35,1.68-4.4,4.4Z"/><path class="cls-4" d="M162.73,168.71c-.08,5.13-.16,14-.24,19.13"/><path class="cls-4" d="M159.62,168.71c-.09,6.37-.14,12.75-.24,19.13,0,4,6.16,4,6.22,0,.1-6.38.14-12.76.24-19.13.06-4-6.16-4-6.22,0Z"/><path class="cls-4" d="M181.12,176.64,174,190.32"/><path class="cls-4" d="M178.43,175.07l-7.08,13.68c-1.83,3.55,3.53,6.7,5.37,3.14l7.08-13.68c1.84-3.55-3.52-6.7-5.37-3.14Z"/><path class="cls-4" d="M321.92,171.57l8.41,12.91"/><path class="cls-4" d="M319.23,173.14l8.41,12.91c2.18,3.34,7.57.23,5.37-3.14L324.6,170c-2.17-3.35-7.56-.23-5.37,3.13Z"/><path class="cls-4" d="M348.16,164.52c-1.26,5-3.11,12.38-4.38,17.35"/><path class="cls-4" d="M345.16,163.7c-1.47,5.78-2.9,11.56-4.37,17.34-1,3.88,5,5.54,6,1.66,1.47-5.78,2.91-11.57,4.38-17.35,1-3.88-5-5.54-6-1.65Z"/><path class="cls-4" d="M367,175.92l-10.06,11.66"/><path class="cls-4" d="M364.79,173.72l-10.06,11.66c-2.6,3,1.78,7.44,4.4,4.4l10.06-11.66c2.6-3-1.78-7.44-4.4-4.4Z"/><path class="cls-4" d="M182.73,276.24c.14,10.79.23,21.58.36,32.38,0,3.2,5,3.21,5,0-.14-10.8-.23-21.59-.36-32.38,0-3.2-5-3.21-5,0Z"/><path class="cls-4" d="M200.17,276.51c.14,10.79.23,21.59.36,32.38,0,3.2,5,3.21,5,0-.14-10.79-.23-21.59-.36-32.38,0-3.2-5-3.21-5,0Z"/><path class="cls-4" d="M291.09,276.35c.14,10.79.23,21.59.36,32.38,0,3.2,5,3.21,5,0-.13-10.79-.22-21.59-.35-32.38,0-3.2-5-3.21-5,0Z"/><path class="cls-4" d="M226.47,276.18l-10.41,32c-1,3.05,3.81,4.36,4.8,1.32l10.4-32c1-3.05-3.8-4.36-4.79-1.32Z"/><path class="cls-4" d="M226.83,277.55l12.49,31.88c1.15,2.94,6,1.66,4.79-1.33l-12.48-31.87c-1.16-3-6-1.67-4.8,1.32Z"/><path class="cls-4" d="M308.42,275.39l-16.23,18.5c-2.1,2.4,1.4,5.93,3.52,3.52l16.22-18.5c2.11-2.4-1.4-5.93-3.51-3.52Z"/><path class="cls-4" d="M292.62,295.25,309,310.35c2.35,2.17,5.88-1.34,3.52-3.52l-16.36-15.1c-2.35-2.17-5.88,1.34-3.52,3.52Z"/><path class="cls-4" d="M344.09,282.09c-3.14-10.95-22.55-9.73-20.52,2.7.82,5,6.88,8.62,11,10.79a10.31,10.31,0,0,1,2.3,1.15c3.09,2.79,2.52,9-2.38,9.39-5.1.45-8.22-4.11-9.05-8.44-.61-3.14-5.41-1.81-4.8,1.32,1.08,5.63,4.6,10.16,10.3,11.57s11.23-1.16,12.68-7.07c1.26-5.18-2-9.95-6.37-12.18-2.26-1.16-5.8-3.13-7.41-5.09-5.14-6.28,7.39-10.15,9.49-2.82.88,3.07,5.68,1.77,4.8-1.32Z"/><path class="cls-4" d="M277.56,284.18c-1.28-7.29-8-10.92-15.14-9-8.07,2.14-10.55,12.67-10.26,20s4.2,15.06,12.22,15.85c7.19.71,13.2-3.4,13.48-10.82.12-3.21-4.86-3.2-5,0-.18,4.82-4.76,6.77-9.08,5.72-5.14-1.25-6.85-7.5-6.67-12.19.17-4.48,1.31-11.75,6-13.61s8.83.81,9.63,5.42c.55,3.14,5.35,1.81,4.8-1.33Z"/><path class="cls-4" d="M186.58,301.33H202.9c3.2,0,3.2-5,0-5H186.58c-3.2,0-3.21,5,0,5Z"/><path class="cls-4" d="M221.69,301.33H238c3.2,0,3.21-5,0-5H221.69c-3.2,0-3.21,5,0,5Z"/><path class="cls-4" d="M146.78,296.39H163.1c3.2,0,3.21-5,0-5H146.78c-3.2,0-3.2,5,0,5Z"/><path class="cls-4" d="M364.17,296.39h16.32c3.2,0,3.21-5,0-5H364.17c-3.2,0-3.21,5,0,5Z"/></svg>